# File created by Blade
# Date/Time:  Thu Jan 22 16:00:53 2015
#---------------------------------------------------------
:version 1.10
:name HOM
:units
  mass 1.0
  length 1.000000
  angle deg
:documentation
     Acclaim Skeleton File
:root
   axis xyz
   order TX TY TZ RX RY RZ
   position 0.000000 0.000000 0.000000
   orientation 0 0 0
:bonedata
   begin
      id 1
      name RightUpLeg_dum
      direction -1.000000 0.000000 0.000000
      length 3.766986
      axis 0.0 0.0 0.0 xyz
   end
   begin
      id 2
      name LeftUpLeg_dum
      direction 1.000000 0.000000 0.000000
      length 3.766986
      axis 0.0 0.0 0.0 xyz
   end
   begin
      id 3
      name Spine_dum
      direction 0.000000 1.000000 0.000000
      length 7.779697
      axis 0.0 0.0 0.0 xyz
   end
   begin
      id 4
      name RightUpLeg
      direction 0.000000 -1.000000 0.000000
      length 18.017682
      axis 0.0 0.0 0.0 xyz
      dof rx ry rz
   end
   begin
      id 5
      name RightLeg
      direction 0.000000 -1.000000 0.000000
      length 16.881075
      axis 0.0 0.0 0.0 xyz
      dof rx ry rz
   end
   begin
      id 6
      name RightFoot
      direction 0.000000 -0.258819 0.965926
      length 5.770812
      axis 15.0 0.0 0.0 xyz
      dof rx ry rz
   end
   begin
      id 7
      name RightToeBase
      direction 0.000000 0.000000 1.000000
      length 2.952750
      axis 0.0 0.0 0.0 xyz
      dof rx ry rz
   end
   begin
      id 8
      name LeftUpLeg
      direction 0.000000 -1.000000 0.000000
      length 18.017682
      axis 0.0 0.0 0.0 xyz
      dof rx ry rz
   end
   begin
      id 9
      name LeftLeg
      direction 0.000000 -1.000000 0.000000
      length 16.881075
      axis 0.0 0.0 0.0 xyz
      dof rx ry rz
   end
   begin
      id 10
      name LeftFoot
      direction 0.000000 -0.258819 0.965926
      length 5.770812
      axis 15.0 0.0 0.0 xyz
      dof rx ry rz
   end
   begin
      id 11
      name LeftToeBase
      direction 0.000000 0.000000 1.000000
      length 2.952750
      axis 0.0 0.0 0.0 xyz
      dof rx ry rz
   end
   begin
      id 12
      name Spine
      direction 0.000000 1.000000 0.000000
      length 0.000000
      axis 0.0 0.0 0.0 xyz
      dof rx ry rz
   end
   begin
      id 13
      name Spine_dum1
      direction 0.000000 1.000000 0.000000
      length 10.941760
      axis 0.0 0.0 0.0 xyz
   end
   begin
      id 14
      name Spine_dum2
      direction 0.000000 1.000000 0.000000
      length 10.941760
      axis 0.0 0.0 0.0 xyz
   end
   begin
      id 15
      name Spine_dum3
      direction 0.000000 1.000000 0.000000
      length 16.646042
      axis 0.0 0.0 0.0 xyz
   end
   begin
      id 16
      name RightShoulder
      direction -1.000000 0.000000 0.000000
      length 7.708937
      axis 0.0 0.0 90.0 xyz
      dof rx ry rz
   end
   begin
      id 17
      name RightArm
      direction -1.000000 0.000000 0.000000
      length 11.521345
      axis 0.0 0.0 90.0 xyz
      dof rx ry rz
   end
   begin
      id 18
      name RightForeArm
      direction -1.000000 0.000000 0.000000
      length 10.175898
      axis 0.0 0.0 90.0 xyz
      dof ry rz rx
   end
   begin
      id 19
      name RightHand
      direction -1.000000 0.000000 0.000000
      length 0.000000
      axis 0.0 0.0 90.0 xyz
      dof rx ry rz
   end
   begin
      id 20
      name RightHand_dum1
      direction -1.000000 0.000000 0.000000
      length 3.937000
      axis 0.0 0.0 90.0 xyz
   end
   begin
      id 21
      name RightHand_dum2
      direction 0.000000 0.000000 0.000000
      length 0.000000
      axis 0.0 0.0 90.0 xyz
   end
   begin
      id 22
      name RightHandThumb1
      direction 0.000000 0.000000 1.000000
      length 3.937000
      axis 0.0 0.0 90.0 xyz
      dof rx rz ry
   end
   begin
      id 23
      name LeftShoulder
      direction 1.000000 0.000000 0.000000
      length 7.708937
      axis 0.0 0.0 -90.0 xyz
      dof rx ry rz
   end
   begin
      id 24
      name LeftArm
      direction 1.000000 0.000000 0.000000
      length 11.521345
      axis 0.0 0.0 -90.0 xyz
      dof rx ry rz
   end
   begin
      id 25
      name LeftForeArm
      direction 1.000000 0.000000 0.000000
      length 10.175898
      axis 0.0 0.0 -90.0 xyz
      dof ry rz rx
   end
   begin
      id 26
      name LeftHand
      direction 1.000000 0.000000 0.000000
      length 0.000000
      axis 0.0 0.0 -90.0 xyz
      dof rx ry rz
   end
   begin
      id 27
      name LeftHand_dum1
      direction 1.000000 0.000000 0.000000
      length 3.937000
      axis 0.0 0.0 -90.0 xyz
   end
   begin
      id 28
      name LeftHand_dum2
      direction 0.000000 0.000000 0.000000
      length 0.000000
      axis 0.0 0.0 -90.0 xyz
   end
   begin
      id 29
      name LeftHandThumb1
      direction 0.000000 0.000000 1.000000
      length 3.937000
      axis 0.0 0.0 -90.0 xyz
      dof rx rz ry
   end
   begin
      id 30
      name Head
      direction 0.000000 1.000000 0.000000
      length 4.527550
      axis 0.0 0.0 0.0 xyz
      dof rx ry rz
   end
:hierarchy
   begin
      root RightUpLeg_dum LeftUpLeg_dum Spine_dum
      RightUpLeg_dum RightUpLeg
      LeftUpLeg_dum LeftUpLeg
      Spine_dum Spine
      RightUpLeg RightLeg
      RightLeg RightFoot
      RightFoot RightToeBase
      LeftUpLeg LeftLeg
      LeftLeg LeftFoot
      LeftFoot LeftToeBase
      Spine Spine_dum1 Spine_dum2 Spine_dum3
      Spine_dum1 RightShoulder
      Spine_dum2 LeftShoulder
      Spine_dum3 Head
      RightShoulder RightArm
      RightArm RightForeArm
      RightForeArm RightHand
      RightHand RightHand_dum1 RightHand_dum2
      RightHand_dum2 RightHandThumb1
      LeftShoulder LeftArm
      LeftArm LeftForeArm
      LeftForeArm LeftHand
      LeftHand LeftHand_dum1 LeftHand_dum2
      LeftHand_dum2 LeftHandThumb1
   end

# File created by Blade
# Date/Time:  Thu Jan 22 16:00:44 2015
# Frame Rate: 120.000 fps
#------------------------------------------------------
:FULLY-SPECIFIED
:DEGREES
161
root 1.234112 37.267886 2.957265 -5.997880 0.926215 2.381583
RightUpLeg 7.460251 -1.921837 -1.814089
RightLeg 6.007838 -0.000000 -0.000000
RightFoot -17.123066 -15.747825 15.924662
RightToeBase 12.301888 -0.000000 -0.000000
LeftUpLeg -5.081138 0.631462 4.176939
LeftLeg 24.812950 -0.000000 -0.000000
LeftFoot -14.395462 4.874573 -22.843675
LeftToeBase 4.188448 -0.000000 -0.000000
Spine 33.461690 -7.383310 -6.049809
RightShoulder -2.953902 -39.725736 -11.310446
RightArm 28.607440 -57.169583 60.703640
RightForeArm 61.104822 -0.000000 54.187199
RightHand -0.559683 -0.000000 18.097495
RightHandThumb1 -24.326973 -0.000000 -32.862282
LeftShoulder -33.768720 51.429839 -14.521682
LeftArm 55.142393 47.077339 -44.056022
LeftForeArm -40.090303 0.000000 40.150835
LeftHand -18.719222 -0.000000 -45.555514
LeftHandThumb1 -26.253704 0.000000 33.147579
Head 44.496405 13.003416 5.969153
162
root 1.231339 37.271943 2.954529 -5.727647 0.862073 2.364241
RightUpLeg 7.161383 -1.954900 -1.790731
RightLeg 6.037783 -0.000000 -0.000000
RightFoot -17.072144 -15.698072 15.916845
RightToeBase 12.268229 -0.000000 -0.000000
LeftUpLeg -5.201205 0.586402 4.245630
LeftLeg 24.136922 -0.000000 -0.000000
LeftFoot -14.480205 4.923451 -22.668680
LeftToeBase 3.749622 -0.000000 -0.000000
Spine 33.420419 -7.296061 -6.128359
RightShoulder -3.580447 -39.683856 -11.241358
RightArm 28.156494 -57.250002 61.542784
RightForeArm 60.484548 -0.000000 53.598984
RightHand -0.864541 -0.000000 18.640977
RightHandThumb1 -24.326973 -0.000000 -32.862282
LeftShoulder -34.420061 51.338471 -14.692275
LeftArm 54.361167 47.107193 -45.253948
LeftForeArm -39.295416 -0.000000 39.569790
LeftHand -18.639211 -0.000000 -46.488644
LeftHandThumb1 -26.253704 0.000000 33.147579
Head 44.730599 13.002995 6.089313
163
root 1.225382 37.274637 2.951611 -5.425367 0.807004 2.313220
RightUpLeg 6.830203 -2.003677 -1.726177
RightLeg 6.065394 -0.000000 -0.000000
RightFoot -17.025168 -15.623880 15.923210
RightToeBase 12.264724 -0.000000 -0.000000
LeftUpLeg -5.359213 0.590399 4.350582
LeftLeg 23.449608 -0.000000 -0.000000
LeftFoot -14.478246 5.057166 -22.432158
LeftToeBase 3.101001 -0.000000 -0.000000
Spine 33.342976 -7.215308 -6.181666
RightShoulder -4.301965 -39.693769 -11.105902
RightArm 27.644987 -57.299481 62.412755
RightForeArm 59.738779 -0.000000 53.005980
RightHand -1.140972 -0.000000 19.302182
RightHandThumb1 -24.326973 -0.000000 -32.862282
LeftShoulder -35.047222 51.246383 -14.817025
LeftArm 53.457943 47.128298 -46.605440
LeftForeArm -38.484531 -0.000000 38.903386
LeftHand -18.581946 -0.000000 -47.497577
LeftHandThumb1 -26.253704 0.000000 33.147579
Head 44.966381 13.022109 6.274242
164
root 1.226248 37.277379 2.959008 -5.150116 0.752301 2.289527
RightUpLeg 6.557919 -2.073574 -1.709210
RightLeg 6.064857 -0.000000 -0.000000
RightFoot -16.965700 -15.527385 15.906920
RightToeBase 12.201132 -0.000000 -0.000000
LeftUpLeg -5.429632 0.637363 4.422400
LeftLeg 22.680490 -0.000000 -0.000000
LeftFoot -14.430493 5.145713 -22.235019
LeftToeBase 2.485994 -0.000000 -0.000000
Spine 33.278894 -7.099224 -6.254081
RightShoulder -5.134230 -39.763184 -10.871135
RightArm 27.026836 -57.305500 63.313287
RightForeArm 58.901303 -0.000000 52.464326
RightHand -1.448364 -0.000000 20.011376
RightHandThumb1 -24.326973 -0.000000 -32.862282
LeftShoulder -35.577227 51.157575 -14.842607
LeftArm 52.497746 47.222258 -48.015705
LeftForeArm -36.893455 0.000000 38.211129
LeftHand -17.975250 -0.000000 -48.377334
LeftHandThumb1 -26.253704 0.000000 33.147579
Head 45.184201 12.979104 6.441045
